<svg width="27" height="43" viewBox="0 0 27 43" fill="none" xmlns="http://www.w3.org/2000/svg">
<rect y="5" width="27" height="33" rx="10" fill="#B9C0FD"/>
<path d="M10.88 32.6C8.90667 32.6 7.36 32.2533 6.24 31.56C5.12 30.8667 4.33333 29.84 3.88 28.48C3.45333 27.0933 3.24 25.3867 3.24 23.36C3.24 22.4267 3.28 21.4267 3.36 20.36C2.32 19.96 1.8 19.4667 1.8 18.88C1.8 18.3733 1.96 18.0133 2.28 17.8C2.62667 17.56 3.01333 17.3733 3.44 17.24C3.89333 17.1067 4.26667 16.9467 4.56 16.76C4.61333 16.44 4.69333 15.96 4.8 15.32C4.90667 14.6533 5.01333 13.96 5.12 13.24C5.25333 12.4933 5.37333 11.84 5.48 11.28C5.58667 10.6933 5.65333 10.3333 5.68 10.2C5.38667 10.04 4.98667 9.94667 4.48 9.92C4 9.86666 3.57333 9.76 3.2 9.6C2.82667 9.44 2.64 9.10667 2.64 8.6C2.64 8.06667 2.78667 7.68 3.08 7.44C3.37333 7.17333 3.85333 6.98666 4.52 6.88C6.22667 6.58666 7.86667 6.34667 9.44 6.16C11.0133 5.97333 12.6533 5.88 14.36 5.88C14.7333 5.88 15.24 5.88 15.88 5.88C16.52 5.88 17.16 5.93333 17.8 6.04C18.4667 6.12 19.0267 6.29333 19.48 6.56C19.9333 6.82667 20.16 7.22667 20.16 7.76C20.16 8.05333 20.0667 8.30667 19.88 8.52C19.72 8.73333 19.5333 8.84 19.32 8.84H13.32C13.2133 8.84 12.92 8.85333 12.44 8.88C11.96 8.88 11.44 8.90667 10.88 8.96C10.32 9.01333 9.85333 9.12 9.48 9.28C9.08 9.44 8.76 9.93333 8.52 10.76C8.28 11.5867 8.10667 12.5733 8 13.72C7.89333 14.84 7.84 15.9467 7.84 17.04C8.18667 17.0133 8.70667 16.9867 9.4 16.96C10.0933 16.9067 10.8133 16.8667 11.56 16.84C12.3333 16.8133 12.9733 16.8 13.48 16.8H15.08C15.6933 16.8 16.1067 16.9333 16.32 17.2C16.56 17.4667 16.68 17.8267 16.68 18.28C16.68 19.1867 16.1733 19.68 15.16 19.76L8.4 20.2C7.65333 20.2267 7.14667 20.36 6.88 20.6C6.64 20.8133 6.48 21.2267 6.4 21.84C6.34667 22.3467 6.30667 22.7333 6.28 23C6.28 23.2667 6.28 23.5067 6.28 23.72C6.30667 23.9067 6.32 24.08 6.32 24.24C6.32 24.3733 6.32 24.4933 6.32 24.6C6.32 25.2133 6.37333 25.8667 6.48 26.56C6.58667 27.2267 6.82667 27.8267 7.2 28.36C7.6 28.8933 8.21333 29.2533 9.04 29.44H11.08C12.4133 29.44 13.8267 29.3333 15.32 29.12C16.84 28.9067 18.1733 28.6667 19.32 28.4C19.3733 28.3733 19.44 28.36 19.52 28.36C19.6 28.36 19.6533 28.36 19.68 28.36C20.0533 28.36 20.2933 28.4933 20.4 28.76C20.5333 29.0267 20.6 29.32 20.6 29.64C20.6 30.84 19.3867 31.68 16.96 32.16C16.1067 32.3467 15.1333 32.4667 14.04 32.52C12.9467 32.5733 11.8933 32.6 10.88 32.6Z" fill="black"/>
</svg>
