<svg width="63" height="61" viewBox="0 0 63 61" fill="none" xmlns="http://www.w3.org/2000/svg">
<path d="M22.4167 57.1399C23.3125 56.7666 23.94 55.9041 23.94 54.9V48.312C23.94 48.0717 23.9602 47.8216 23.9917 47.5678C23.974 47.5727 23.9577 47.5763 23.94 47.58C23.94 47.58 20.16 47.58 19.404 47.58C17.514 47.58 15.876 46.848 15.12 45.384C14.238 43.798 13.86 41.114 11.592 39.65C11.214 39.406 11.466 39.04 12.222 39.04C12.978 39.162 14.616 40.138 15.624 41.48C16.758 42.822 17.892 43.92 19.908 43.92C23.0416 43.92 24.7212 43.7675 25.7317 43.2429C26.9086 41.5483 28.5378 40.26 30.24 40.26V40.2295C23.0983 40.0075 18.5359 37.709 16.4115 34.16C11.7936 34.2112 7.77296 34.6541 5.4785 35.0225C5.40542 34.6236 5.34242 34.2222 5.28824 33.8184C7.55246 33.4573 11.3904 33.0291 15.8029 32.9473C15.6618 32.6106 15.5396 32.2653 15.4363 31.9115C11.0124 31.6944 7.19462 31.864 5.12066 32.0299C5.09546 31.6248 5.06144 31.221 5.0564 30.8111C7.13414 30.6464 10.8486 30.4817 15.1591 30.6757C15.0595 30.0657 14.9953 29.4423 14.9953 28.7932C14.9953 26.7192 15.7513 24.5232 17.1373 22.6932C16.5073 20.6192 15.6253 16.2272 17.3893 14.6412C20.7913 14.6412 23.1853 16.2272 24.3193 17.2032C26.46 16.348 28.854 15.86 31.5 15.86C34.146 15.86 36.54 16.348 38.556 17.202C39.69 16.226 42.084 14.64 45.486 14.64C47.376 16.348 46.368 20.74 45.738 22.692C47.124 24.522 47.88 26.596 47.754 28.792C47.754 29.3825 47.6973 29.9522 47.6154 30.511C52.0242 30.3011 55.8394 30.4695 57.9525 30.6354C57.9499 31.0466 57.9109 31.4479 57.8882 31.8542C55.7827 31.6858 51.8717 31.5126 47.3559 31.7456C47.2437 32.1555 47.1076 32.5545 46.9464 32.9412C51.4143 32.9973 55.3443 33.4158 57.7168 33.7818C57.6627 34.1868 57.5997 34.5882 57.5266 34.9859C55.1175 34.6126 51.0111 34.1759 46.339 34.1539C44.2411 37.6651 39.7618 39.955 32.76 40.2222V40.26C36.036 40.26 39.06 45.018 39.06 48.312V54.9C39.06 55.9041 39.6875 56.7666 40.5834 57.1399C52.1262 53.4409 60.48 42.9001 60.48 30.5C60.48 15.028 47.4806 2.44 31.5 2.44C15.5194 2.44 2.52002 15.028 2.52002 30.5C2.52002 42.9001 10.8738 53.4409 22.4167 57.1399Z" fill="#9199E2"/>
</svg>
