<svg width="144" height="140" viewBox="0 0 144 140" fill="none" xmlns="http://www.w3.org/2000/svg">
<path d="M51.2381 131.141C53.2858 130.284 54.72 128.304 54.72 126V110.88C54.72 110.328 54.7661 109.754 54.8381 109.172C54.7978 109.183 54.7603 109.192 54.72 109.2C54.72 109.2 46.08 109.2 44.352 109.2C40.032 109.2 36.288 107.52 34.56 104.16C32.544 100.52 31.68 94.36 26.496 91C25.632 90.44 26.208 89.6 27.936 89.6C29.664 89.88 33.408 92.12 35.712 95.2C38.304 98.28 40.896 100.8 45.504 100.8C52.6666 100.8 56.5056 100.45 58.8154 99.246C61.5053 95.3568 65.2291 92.4 69.12 92.4V92.33C52.7962 91.8204 42.3677 86.5452 37.512 78.4C26.9568 78.5176 17.7667 79.534 12.5223 80.3796C12.3552 79.464 12.2112 78.5428 12.0874 77.616C17.2627 76.7872 26.0352 75.8044 36.121 75.6168C35.7984 74.844 35.5191 74.0516 35.2829 73.2396C25.1712 72.7412 16.4448 73.1304 11.7043 73.5112C11.6467 72.5816 11.569 71.6548 11.5575 70.714C16.3066 70.336 24.7968 69.958 34.6493 70.4032C34.4218 69.0032 34.2749 67.5724 34.2749 66.0828C34.2749 61.3228 36.0029 56.2828 39.1709 52.0828C37.7309 47.3228 35.7149 37.2428 39.7469 33.6028C47.5229 33.6028 52.9949 37.2428 55.5869 39.4828C60.48 37.52 65.952 36.4 72 36.4C78.048 36.4 83.52 37.52 88.128 39.48C90.72 37.24 96.192 33.6 103.968 33.6C108.288 37.52 105.984 47.6 104.544 52.08C107.712 56.28 109.44 61.04 109.152 66.08C109.152 67.4352 109.022 68.7428 108.835 70.0252C118.912 69.5436 127.633 69.93 132.463 70.3108C132.457 71.2544 132.368 72.1756 132.316 73.108C127.503 72.7216 118.564 72.324 108.242 72.8588C107.986 73.7996 107.675 74.7152 107.306 75.6028C117.518 75.7316 126.501 76.692 131.924 77.532C131.8 78.4616 131.656 79.3828 131.489 80.2956C125.983 79.4388 116.597 78.4364 105.918 78.386C101.123 86.4444 90.8842 91.7 74.88 92.3132V92.4C82.368 92.4 89.28 103.32 89.28 110.88V126C89.28 128.304 90.7143 130.284 92.7619 131.141C119.146 122.651 138.24 98.4592 138.24 70C138.24 34.4904 108.527 5.6 72 5.6C35.473 5.6 5.76001 34.4904 5.76001 70C5.76001 98.4592 24.8544 122.651 51.2381 131.141Z" fill="#9199E2"/>
</svg>
