<svg width="48" height="36" viewBox="0 0 48 36" fill="none" xmlns="http://www.w3.org/2000/svg">
<path d="M4.5 0C2.03125 0 0.011719 1.97531 0 4.39469C0 4.39469 0 4.39852 0 4.40235C0 4.40617 0 4.40617 0 4.41V30.87C0 33.2932 2.02734 35.28 4.5 35.28H43.5C45.9727 35.28 48 33.2932 48 30.87V4.41C48 4.40617 48 4.40617 48 4.40235C48 4.39852 48 4.39469 48 4.39469C47.9883 1.97531 45.9688 0 43.5 0H4.5ZM7.10156 1.96H40.9023L24 13.5056L7.10156 1.96ZM3.77344 2.07484L24 15.8944L44.2305 2.07484C45.2539 2.37727 45.9922 3.28836 46 4.39852C45.9961 4.60524 45.7813 5.01867 45.4688 5.35172C45.1523 5.6886 44.8438 5.89914 44.8438 5.89914L44.8398 5.9068L24 20.3618L3.16016 5.9068L3.15625 5.89914C3.15625 5.89914 2.84766 5.6886 2.53125 5.35172C2.21875 5.01867 2.00391 4.60524 2 4.39852C2.00781 3.28836 2.74609 2.37727 3.77344 2.07484ZM2 7.4993L2.00781 7.50695L2.01563 7.51078V7.51461L5 9.5818V33.32H4.5C3.10938 33.32 2 32.2328 2 30.87V7.4993ZM46 7.4993V30.87C46 32.2328 44.8906 33.32 43.5 33.32H43V9.5818L45.9844 7.51461V7.51078L46 7.4993ZM7 10.9676L24 22.7582L41 10.9676V33.32H7V10.9676Z" fill="#182176"/>
</svg>
