<svg width="356" height="359" viewBox="0 0 356 359" fill="none" xmlns="http://www.w3.org/2000/svg">
<path d="M356 117.5C356 211.112 263.112 358.161 169.5 358.161C75.8877 358.161 0 282.273 0 188.661C0 95.0486 75.8877 19.1609 169.5 19.1609C263.112 19.1609 356 23.8877 356 117.5Z" fill="#E0E3FD"/>
<path fill-rule="evenodd" clip-rule="evenodd" d="M244.809 196.393C243.91 193.923 245.223 191.46 245.952 189.07C248.539 180.784 251.364 172.497 255.361 164.77C256.875 162.185 254.385 159.013 251.498 159.742C246.557 160.435 241.462 159.884 236.512 159.578C234.701 154.893 229.87 152.949 226.067 150.251C221.752 147.557 217.555 144.462 213.067 142.1C212.818 139.868 210.112 139.315 208.458 140.912C203.915 138.084 198.466 138.609 193.596 136.757C189.895 130.773 189.617 124.48 188.637 118.707C188.21 116.191 188.664 113.763 186.945 111.519C181.171 103.395 158.356 99.8721 149.944 104.686C145.416 101.861 145.307 106.978 144.588 110.136C143.788 111.716 143.356 113.505 143.489 115.39C138.626 125.553 127.498 130.147 117.533 133.869C116.283 132.666 114.496 132.818 113.306 133.814C104.669 135.692 96.2856 138.994 89.0486 144.15C80.8265 146.556 75.036 153.246 70.8488 160.419C70.3874 161.175 70.2787 161.946 70.4135 162.654C57.5374 181.536 51.392 204.14 50.5288 226.971C42.2486 231.942 54.4644 276.601 57.3081 285.873C57.311 285.872 57.3138 285.87 57.3167 285.869C59.1616 289.136 61.2563 298.46 65.8734 297.739C69.0405 301.321 74.0878 300.617 78.3857 300.892C77.6857 303.578 78.0297 306.652 78.8628 309.306C79.8482 312.466 84.684 312.573 85.3697 309.128C128.17 317.447 172.085 310.81 215.366 312.058C227.881 312.147 240.393 312.534 252.877 313.426C254.635 313.552 256.418 311.755 256.298 310.004C253.614 281.437 251.093 243.858 248.092 215.571C247.38 209.12 246.817 202.598 244.809 196.393Z" fill="#E0E3FD"/>
<path fill-rule="evenodd" clip-rule="evenodd" d="M145.294 106.45C145.417 106.115 145.917 106.159 145.926 106.535C146.123 114.567 144.125 124.383 137.7 129.808C134.402 132.593 130.042 133.868 126.037 135.332L125.586 135.499L118.511 138.135C116.635 138.834 114.611 139.91 112.953 138.922C114.295 142.249 115.42 145.668 117.054 148.874C119.087 152.866 121.545 156.518 124.554 159.84C136.473 172.998 155.337 177.012 172.265 173.157C180.982 171.171 189.464 167.408 195.411 160.545C199.931 155.329 202.528 148.327 203.14 141.421C202.961 141.449 202.773 141.448 202.581 141.406C200.439 140.938 198.277 139.79 196.392 138.664L196.211 138.555C194.397 137.463 192.507 136.211 191.206 134.514C190.344 133.391 189.461 130.997 188.557 127.333C188.187 125.267 187.841 121.152 187.9 119.064C187.905 118.867 188.779 118.751 188.872 118.955C189.68 120.728 189.941 124.623 190.564 126.468L190.69 126.836C191.355 128.763 191.926 131.109 193.306 132.666C195.896 135.591 199.805 136.829 203.293 138.296C203.544 134.99 208.821 135.067 208.754 138.515C208.751 138.702 208.742 138.888 208.736 139.074C209.152 139.303 209.552 139.565 209.926 139.818L210.292 140.066C211.673 141.006 213.066 141.899 214.537 142.697C217.386 144.242 220.401 145.466 223.32 146.868C226.273 148.287 229.035 149.977 231.613 152C232.824 152.95 233.985 153.962 235.087 155.037L235.385 155.331C236.434 156.376 237.798 157.544 238.395 158.916C238.527 159.219 239.186 159.923 239.544 159.946C245.09 160.31 250.623 160.824 256.134 161.594C257.561 161.793 258.125 162.529 257.598 163.718C255.785 167.806 248.691 184.132 246.804 188.514C247.024 191.733 246.727 195.522 246.925 198.742C247.216 203.44 247.596 208.137 248.052 212.822C249.683 229.582 252.157 246.261 254.391 262.948C255.51 271.299 256.529 279.663 257.536 288.028C258.044 292.256 258.476 296.487 258.808 300.733C258.946 302.502 259.071 304.272 259.182 306.043L259.277 307.614C259.409 309.591 259.711 311.479 258.489 313.175C257.934 313.945 256.668 314.378 255.939 313.504C255.023 312.405 254.682 311.584 254.594 310.14C254.527 309.035 254.511 307.924 254.461 306.818C254.352 304.42 254.215 302.023 254.055 299.627C253.736 294.838 253.371 290.05 252.948 285.269C251.466 268.504 248.65 251.866 246.776 235.142C245.832 226.712 245.161 218.265 244.806 209.787C244.628 205.554 244.564 201.321 244.606 197.083C244.621 195.501 244.696 193.925 244.805 192.353C241.998 198.733 239.047 205.051 235.961 211.285L235.23 212.761C233.275 216.701 231.267 220.656 228.917 224.371L228.513 225.004C227.561 226.513 226.261 228.892 224.525 229.368C223.315 229.7 221.838 229.466 220.598 229.443C219.367 229.419 218.136 229.414 216.906 229.364C215.527 229.309 214.211 229.127 212.878 228.768C212.656 228.708 212.447 228.644 212.256 228.561C210.913 230.759 208.632 232.434 206.299 233.409C204.43 234.191 202.472 234.726 200.51 235.222L199.818 235.396C197.715 235.92 195.309 236.169 194.123 238.201L193.847 238.672C192.965 240.17 192.119 241.487 190.66 242.561C189.089 243.718 187.228 244.446 185.374 245.012C183.475 245.592 181.533 246.035 179.605 246.511L179.08 246.641C177.807 246.96 176.523 247.252 175.258 247.599C174.719 247.747 174.17 247.899 173.64 248.081C173.02 248.294 172.57 248.627 172.081 248.989C171.641 250.525 169.762 251.359 168.217 251.252C167.406 251.196 166.678 250.921 166.016 250.517C164.86 251.501 163.587 252.383 162.409 253.295C160.759 254.572 159.102 255.84 157.436 257.097C154.002 259.686 150.541 262.242 147.045 264.747C140.838 269.193 134.498 273.436 128.049 277.522C125.36 279.226 122.653 280.926 119.919 282.586L120.211 282.695L120.79 282.913C122.157 283.424 123.682 284.25 123.947 285.846C124.157 287.112 123.45 287.985 122.2 288.139C120.715 288.323 119.559 287.273 118.635 286.271C118.226 285.829 117.77 285.419 117.379 284.964C117.219 284.778 117.097 284.564 116.989 284.339C114.291 285.929 111.565 287.466 108.795 288.903L108.102 289.26C101.234 292.774 94.5489 296.623 87.6225 300.037C85.8157 300.927 83.6127 301.89 81.3165 302.548C81.9259 304.91 81.9164 307.504 81.9319 309.902C81.9465 312.239 78.2341 312.228 78.3125 309.902L78.3503 308.779C78.4179 306.89 78.5283 304.93 78.9762 303.092C72.2107 304.215 65.4521 301.775 64.1937 301.043C62.8048 300.235 61.544 298.942 60.4948 297.742C58.2495 295.175 56.6914 292.098 55.309 289.002C52.348 282.372 50.2501 275.285 48.7163 268.197C43.0617 242.066 45.4939 214.098 54.6768 189.049C56.971 182.791 59.6797 176.67 62.7836 170.771L63.169 170.042C66.2663 164.208 69.7088 158.397 74.0815 153.433C78.6362 148.262 84.2547 144.241 90.3721 141.119C93.3575 139.596 96.4293 138.276 99.569 137.106C100.073 136.918 100.581 136.749 101.09 136.589C104.362 134.502 108.333 132.506 112.305 132.584C112.575 132.589 112.793 132.691 112.957 132.846C113.148 132.879 113.339 132.92 113.531 132.976C113.955 133.099 114.402 133.563 114.341 134.039L114.32 134.198C114.309 134.276 114.295 134.35 114.271 134.423C114.413 134.445 114.552 134.478 114.689 134.525C118.489 133.451 122.228 131.809 125.937 130.485L126.782 130.186C129.888 129.098 133.075 128.03 135.623 125.875C138.157 123.731 140.064 120.954 141.442 117.952C143.139 114.253 143.9 110.247 145.294 106.45ZM221.384 301.524C222.136 300.963 223.026 301.613 223.308 302.307C224.232 304.581 223.776 308.116 222.472 310.128C221.122 312.211 217.89 311.389 217.812 308.865C217.73 306.233 219.26 303.105 221.384 301.524ZM229.157 238.709C229.224 238.413 229.684 238.416 229.752 238.709C230.379 241.378 230.364 244.253 230.548 246.99L230.569 247.293C230.79 250.311 230.975 253.338 231.108 256.361C231.367 262.309 231.677 268.258 232.025 274.201C232.198 277.149 232.383 280.096 232.58 283.042C233.198 282.698 233.834 282.395 234.493 282.128C235.481 281.729 236.443 281.683 237.505 281.694C238.797 281.707 239.771 282.845 239.6 284.112C239.413 285.491 238.199 286.083 236.938 285.886C235.541 285.667 234.138 285.328 232.728 285.188C232.885 287.466 233.048 289.743 233.22 292.019C233.448 295.033 233.745 298.042 233.954 301.057C233.974 301.345 233.995 301.633 234.018 301.921C234.858 301.484 235.751 301.26 236.763 300.984L237.027 300.91C238.496 300.488 240.068 299.905 241.428 300.893C242.342 301.558 242.525 302.651 241.767 303.528C240.619 304.858 238.92 304.6 237.334 304.532L236.481 304.501C235.677 304.469 234.935 304.418 234.192 304.215C234.328 306.178 234.4 308.15 234.159 310.085C234.029 311.131 232.653 311.405 232.288 310.338C231.337 307.55 231.14 304.542 230.792 301.622C230.466 298.894 230.269 296.146 230.056 293.406L229.991 292.584C229.512 286.556 229.129 280.525 228.849 274.485C228.569 268.445 228.4 262.407 228.333 256.361C228.303 253.616 228.349 250.861 228.456 248.116L228.49 247.293C228.614 244.47 228.527 241.475 229.157 238.709ZM103.391 301.969C103.428 301.583 103.737 301.104 104.196 301.163C104.62 301.218 105.056 301.192 105.474 301.262C106.027 301.354 106.472 301.68 106.986 301.886C107.821 302.22 108.732 302.393 109.589 302.666C111.197 303.179 112.074 304.873 111.408 306.455C110.707 308.117 108.948 308.495 107.427 307.797C106.228 307.247 105.335 306.368 104.529 305.351L104.301 305.061C103.953 304.624 103.559 304.136 103.414 303.607C103.272 303.091 103.342 302.493 103.391 301.969ZM181.525 294.152C183.528 293.87 185.239 294.555 187.092 295.201L187.243 295.253C189.129 295.904 191.882 296.355 192.848 298.287C193.432 299.452 192.979 300.998 191.606 301.343C189.432 301.888 187.483 300.299 185.685 299.229L185.591 299.173C183.856 298.156 182.065 297.302 180.957 295.548C180.662 295.08 180.918 294.238 181.525 294.152ZM111.599 134.79C110.797 134.97 109.994 135.129 109.193 135.282C106.143 136.917 103.183 138.613 100.035 140.07C96.6941 141.616 93.3658 143.212 90.1926 145.082C83.7819 148.86 78.4971 153.772 74.1302 159.793C66.587 170.194 60.9759 182.188 56.9602 194.358C55.9284 197.485 55.0051 200.646 54.1883 203.835C55.6325 202.499 57.3422 201.677 59.2595 200.974C60.0721 200.676 61.0835 201.18 61.4954 201.884C61.6805 202.2 61.785 202.513 61.7658 202.883C61.7232 203.702 61.1908 204.631 60.3122 204.793C58.2638 205.171 56.2721 205.906 54.297 206.553C53.9976 206.652 53.7403 206.614 53.5349 206.499C51.5741 214.807 50.3474 223.287 49.9129 231.818C49.5454 239.04 49.7721 246.319 50.5718 253.531C51.1863 253.254 51.7873 252.995 52.461 252.838C53.3348 252.635 54.1943 252.388 55.0466 252.108C57.5062 251.301 58.6282 255.363 56.1141 255.982C55.1785 256.213 54.2372 256.404 53.2839 256.544C52.453 256.666 51.718 256.612 50.9347 256.485C51.5331 260.984 52.3505 265.451 53.3918 269.854L53.6215 270.818C54.974 276.442 56.5504 282.118 58.8299 287.433C59.9481 290.04 61.4287 292.516 63.2567 294.69C64.1548 295.759 65.1516 296.675 66.2387 297.543C67.1436 298.266 70.2199 299.834 73.8631 299.834C77.5064 299.834 78.4927 299.489 80.3308 298.856C83.9659 297.604 87.4173 295.606 90.8264 293.826L91.1789 293.643C92.6863 292.863 94.188 292.071 95.6858 291.272C95.4966 289.745 95.8277 288.462 96.6234 287.051C97.4834 285.525 99.6144 286.285 99.7729 287.846L99.7779 287.906C99.802 288.257 99.8609 288.616 99.9342 288.974C109.949 283.486 119.751 277.614 129.398 271.494C135.612 267.552 141.759 263.493 147.817 259.315C150.846 257.226 153.848 255.1 156.82 252.932C158.377 251.796 159.927 250.651 161.469 249.497C162.112 249.016 162.742 248.511 163.386 248.027C163.229 247.831 163.077 247.636 162.929 247.442C160.524 244.293 158.964 240.538 158.187 236.665C157.718 234.328 157.491 231.902 157.422 229.52L157.392 228.484C157.344 226.738 157.332 224.911 157.653 223.22C157.216 223.461 156.769 223.697 156.323 223.949C154.724 224.855 153.123 225.76 151.52 226.659C148.31 228.461 145.091 230.241 141.83 231.95C136.007 235.002 130.126 237.906 124.086 240.508L121.147 241.775C116.047 243.97 110.904 246.125 105.601 247.756C102.61 248.676 99.5965 249.462 96.5624 250.164L97.7894 251.602C98.6214 252.577 98.636 253.976 97.5727 254.797C96.5275 255.604 95.1251 255.268 94.4287 254.196L93.1594 252.243C92.8881 251.826 92.7341 251.434 92.6468 251.022C91.2492 251.315 89.848 251.596 88.4429 251.867L85.7867 252.375C81.9938 253.107 78.3164 254.557 74.9262 256.413C73.7476 257.058 73.4192 255.805 74.668 254.931C78.3192 252.378 82.5783 250.933 86.9727 249.72L87.1886 249.661C88.8008 249.219 90.4101 248.759 92.016 248.282C91.8394 247.643 91.7375 246.98 91.7579 246.248C91.8031 244.62 91.9471 242.985 92.0335 241.357C92.2149 237.941 92.4465 234.535 92.7178 231.125C92.822 229.812 92.9388 228.494 93.0724 227.178C92.2113 226.716 91.4685 226.103 90.5084 225.802L90.3463 225.754C89.3194 225.477 89.666 224.154 90.5781 224.04C91.4044 223.938 92.2267 223.985 93.0412 224.16C93.1674 224.188 93.2868 224.218 93.4007 224.253C93.5504 223.034 93.7164 221.818 93.905 220.609C94.4038 217.414 94.7567 214.048 95.7951 210.978C95.8721 210.751 96.2095 210.67 96.3346 210.908C97.8451 213.783 97.8977 217.309 98.0679 220.51L98.089 220.893C98.2896 224.385 98.3011 227.912 98.2364 231.409C98.17 235.014 98.0467 238.609 97.885 242.21C97.82 243.659 97.8226 245.164 97.5756 246.55C106.565 243.627 115.395 240.128 123.859 235.985C129.829 233.062 135.748 230.023 141.6 226.869C144.532 225.289 147.477 223.735 150.406 222.149C151.432 221.593 152.458 221.035 153.483 220.477L155.02 219.638C156.458 218.853 157.659 218.072 159.334 218.017C159.834 218 160.282 218.234 160.6 218.588C161.5 217.95 162.541 217.557 163.633 217.567C165.277 215.295 166.946 213.042 168.682 210.838L169.964 209.206C172.183 206.391 174.534 203.533 177.364 201.39C178.627 200.434 180.016 199.716 181.465 199.124C181.124 199.04 180.79 198.873 180.493 198.597C179.109 197.313 178.918 194.929 178.637 193.138C178.346 191.281 178.458 189.618 178.746 187.767C178.858 187.047 180.049 186.898 180.34 187.558C180.953 188.952 181.602 190.287 182.159 191.696L182.324 192.121C182.922 193.707 184.197 195.376 184.113 197.097C184.09 197.568 183.932 197.979 183.688 198.31C184.904 197.906 186.138 197.546 187.352 197.17C191.175 195.988 195.013 194.84 198.909 193.923C199.946 193.679 200.989 193.453 202.035 193.245C202.584 190.64 203.383 188.084 204.325 185.574C203.433 185.117 202.855 184.35 202.087 183.669C201.368 183.03 200.874 182.253 200.261 181.52C199.703 180.853 200.016 179.648 201.02 179.687L201.304 179.699C202.343 179.747 203.35 179.855 204.293 180.34L204.629 180.513C205.089 180.753 205.594 181.027 206.043 181.351C206.63 179.999 207.24 178.661 207.857 177.336L208.657 175.623C210.733 171.165 212.803 166.537 215.409 162.385C216.567 160.54 218.109 159.387 220.322 159.209C222.601 159.025 224.97 159.262 227.252 159.344C229.897 159.439 232.542 159.551 235.185 159.69C234.507 158.98 233.889 158.19 233.209 157.509C232.079 156.379 230.886 155.308 229.632 154.318C227.15 152.36 224.421 150.746 221.586 149.356C218.75 147.966 215.832 146.754 213.17 145.037C211.486 143.95 209.98 142.583 208.607 141.103C207.742 150.434 203.238 159.103 196.472 165.616C189.443 172.381 179.731 176.097 170.231 177.678C160.54 179.29 150.425 178.698 141.155 175.329C136.375 173.591 131.791 171.109 127.702 167.995C127.657 168.266 127.603 168.534 127.497 168.785C127.354 169.123 127.18 169.411 126.98 169.709L126.624 170.23C126.399 170.557 126.17 170.882 125.915 171.187C125.297 171.923 124.421 172.245 123.478 172.242C121.673 172.236 120.305 170.464 120.791 168.713C121.096 167.612 121.75 166.949 122.77 166.518C123.092 166.382 123.421 166.268 123.751 166.156L123.999 166.071C124.333 165.957 124.665 165.848 125.009 165.785C123.073 164.076 121.277 162.217 119.668 160.211C114.623 153.92 109.647 145.11 111.334 136.755C111.363 136.612 111.492 136.522 111.631 136.499C111.729 135.913 112.041 135.345 112.468 134.964C112.181 134.888 111.891 134.83 111.599 134.79ZM163.986 279.236C164.985 278.68 166.017 280.001 165.205 280.816L163.993 282.03C162.868 283.161 161.773 284.304 160.81 285.593L160.577 285.908C159.277 287.677 157.89 289.727 155.76 290.388C153.184 291.188 150.708 288.049 152.2 285.755C153.503 283.751 156.013 282.995 158.177 282.166C160.224 281.382 162.072 280.3 163.986 279.236ZM80.8717 269.987C81.4587 269.218 82.9894 269.623 82.5884 270.711C81.2859 274.243 80.755 279.06 77.4653 281.407C76.4041 282.164 74.7369 281.816 73.8631 280.942C72.8703 279.949 72.8305 278.55 73.3983 277.339C74.0909 275.861 75.7942 274.789 76.9882 273.663L77.0953 273.56C78.3797 272.312 79.769 271.431 80.8717 269.987ZM218.361 274.052C219.409 273.601 222.14 272.722 222.949 273.762C222.987 273.8 223.019 273.842 223.045 273.887C223.243 274.233 223.273 274.719 223.045 275.062C222.102 276.479 221.12 277.538 219.779 278.547L219.629 278.659C218.169 279.732 216.798 280.993 215.019 281.477C212.554 282.148 210.832 279.061 212.564 277.258C213.958 275.805 216.088 275.051 217.936 274.241L218.361 274.052ZM119.367 253.867C118.955 253.122 119.797 252.207 120.56 252.674C122.737 254.004 125.273 255.003 127.717 255.72C128.707 256.01 129.599 257.014 129.526 258.096L129.514 258.26C129.485 258.643 129.432 259.022 129.19 259.34C128.338 260.454 127.12 260.883 125.819 260.224C122.92 258.755 120.936 256.703 119.367 253.867ZM182.984 251.609C182.931 251.296 183.161 251.054 183.479 251.114C185.319 251.463 187.017 252.352 188.597 253.373C189.444 253.921 190.261 254.523 191.106 255.077C192.151 255.76 192.542 256.324 192.696 257.578C192.798 258.406 192.025 259.162 191.317 259.39C189.386 260.013 187.174 257.969 185.866 256.642L185.807 256.582C184.438 255.186 183.309 253.535 182.984 251.609ZM238.231 249.441C237.811 248.308 239.257 247.369 240.202 247.925C241.091 248.449 242.057 248.883 242.896 249.483C243.668 250.035 244.371 250.689 245.111 251.287L245.476 251.576C246.833 252.667 249.072 255.365 247.132 256.931C245.286 258.42 242.839 256.518 241.599 255.127L241.513 255.028C240.8 254.205 239.921 253.31 239.404 252.347C238.917 251.442 238.587 250.402 238.231 249.441ZM220.025 161.757C217.713 162.206 216.77 165.061 215.797 166.922C213.499 171.314 211.385 175.787 209.263 180.265C208.61 181.642 207.973 183.03 207.331 184.416C207.292 184.524 207.242 184.631 207.182 184.737C205.867 187.569 204.513 190.383 202.93 193.072C204.379 192.801 205.835 192.569 207.297 192.387C207.223 191.01 208.165 189.168 208.631 188.009L208.67 187.911C209.251 186.426 209.861 184.086 211.357 183.315C211.856 183.059 212.389 183.38 212.427 183.929C212.541 185.564 210.942 187.435 210.161 188.823C209.688 189.662 209.228 190.506 208.779 191.358C208.611 191.677 208.47 191.99 208.298 192.272C209.051 192.19 209.806 192.117 210.563 192.064L211.056 192.03C213.861 191.845 216.841 191.793 219.376 193.177C221.727 194.46 222.93 197.201 221.638 199.696C220.028 202.804 216.484 203.216 213.367 203.468C209.474 203.782 205.572 204.35 201.707 204.903C197.708 205.475 193.943 206.949 190.004 207.707C189.638 207.778 189.41 207.298 189.746 207.094C192.853 205.202 196.63 204.161 200.104 203.1L200.385 203.014C202.269 202.435 204.11 201.774 206.059 201.445C207.951 201.127 209.855 200.869 211.763 200.672L211.949 200.655C214.05 200.479 219.41 200.539 219.184 197.427C219.034 195.367 215.687 195.011 214.159 194.987C207.155 194.874 200.1 196.734 193.443 198.727L191.957 199.173C189.231 199.993 186.501 200.838 183.827 201.799C180.796 202.889 178.408 204.588 176.2 206.914C173.753 209.493 171.382 212.13 168.843 214.622C167.242 216.193 165.621 217.736 163.986 219.266C163.617 219.744 163.322 220.265 163.117 220.939C162.771 222.079 162.851 223.139 162.981 224.31C163.311 227.268 163.383 230.256 163.796 233.204C164.178 235.935 164.713 238.766 165.846 241.3C166.295 242.303 166.88 243.289 167.545 244.17L168.082 244.868C168.316 245.172 168.578 245.504 168.853 245.816C169.256 245.324 169.84 245.003 170.519 245.083C171.961 245.253 173.095 245.212 174.509 244.881C175.604 244.625 176.691 244.324 177.781 244.046C179.921 243.5 182.082 243.003 184.201 242.376L184.565 242.266C186.144 241.781 187.723 241.175 189.038 240.155C190.565 238.97 191.034 237.26 192.165 235.782C194.58 232.625 199.799 232.691 203.332 231.827C206.335 231.092 209.225 229.933 211.303 227.753L211.425 227.623C211.332 227.234 211.482 226.795 211.843 226.594L211.922 226.55C212.063 226.471 212.214 226.439 212.363 226.442C212.556 226.158 212.742 225.866 212.911 225.554C213.05 225.297 213.398 225.486 213.352 225.74C213.325 225.891 213.288 226.039 213.252 226.187C215.265 225.669 217.476 225.768 219.519 225.77L222.172 225.76C222.631 225.755 223.315 225.732 223.376 225.704L223.438 225.676C223.603 225.604 223.369 225.723 223.484 225.57C223.612 225.4 223.736 225.229 223.859 225.057C224.299 224.441 224.715 223.807 225.122 223.168C220.681 224.3 216.08 225.004 211.545 225.591C206.679 226.222 201.749 226.659 196.84 226.664C195.487 226.665 195.5 224.622 196.84 224.57C202.039 224.372 207.209 224.097 212.373 223.43C215.043 223.085 217.701 222.653 220.345 222.146C221.366 221.952 222.384 221.744 223.4 221.525L224.162 221.359C224.639 221.253 225.989 221.101 226.647 220.66C226.777 220.437 226.906 220.215 227.034 219.993C226.971 219.213 224.988 219.317 224.524 219.316C223.206 219.314 221.887 219.324 220.569 219.328C217.933 219.335 215.297 219.313 212.66 219.291C207.393 219.248 202.106 219.065 196.843 219.29C195.565 219.344 194.894 217.294 196.157 216.755C201.731 214.374 207.92 213.857 213.872 213.125C217.002 212.74 220.134 212.296 223.195 211.517L223.951 211.324C225.873 210.831 227.996 210.23 229.615 209.055C227.182 208.071 224.158 208.184 221.636 208.044L221.443 208.033C217.911 207.816 214.373 207.705 210.835 207.7C203.596 207.69 196.354 207.946 189.123 208.29C188.942 208.298 188.904 208.012 189.081 207.973C196.513 206.351 204.067 205.569 211.673 205.449C215.215 205.393 218.759 205.443 222.299 205.6L223.598 205.66C226.615 205.79 229.964 205.825 232.488 207.648C232.873 207.926 233.076 208.28 233.108 208.656C236.494 201.904 239.622 195.01 242.762 188.163C245.203 182.838 247.553 177.469 250.083 172.186L250.902 170.477C251.998 168.197 253.122 165.916 254.37 163.718C249.704 163.094 245.013 162.661 240.318 162.33C236.041 162.027 222.084 161.357 220.025 161.757ZM217.959 234.938C218.491 234.642 219.306 234.883 219.437 235.54C219.535 236.028 219.702 236.571 219.702 237.071C219.702 237.67 219.488 238.321 219.373 238.906C219.111 240.254 218.788 241.349 218.103 242.549C217.674 243.3 216.809 243.81 215.94 243.79C215.251 243.774 214.641 243.589 214.168 243.056C213.602 242.417 213.214 241.478 213.524 240.618C214.338 238.364 215.833 236.119 217.959 234.938ZM105.109 232.69C106.354 230.509 109.305 228.559 111.881 228.752C115.748 229.042 116.537 234.25 112.793 235.493C110.555 236.236 107.476 235.473 105.519 234.251C104.991 233.921 104.797 233.237 105.109 232.69ZM65.367 225.237C65.0843 224.826 65.5516 224.356 65.9729 224.449C66.9074 224.654 67.9148 224.744 68.8301 225.023C69.7674 225.308 70.6747 225.781 71.6032 226.106C73.5482 226.788 75.6258 227.13 77.5082 227.953C78.2606 228.282 78.8525 229.372 78.7829 230.175L78.7652 230.363C78.7235 230.762 78.6544 231.11 78.4315 231.475C77.8324 232.453 76.6455 232.959 75.5253 232.658C73.4472 232.099 71.4166 230.665 69.6447 229.473L69.3172 229.255C68.5431 228.745 67.7107 228.211 67.0868 227.555C66.4357 226.869 65.9005 226.014 65.367 225.237ZM136.803 217.304C136.564 216.442 137.636 215.872 138.261 216.455C139.509 217.618 140.814 218.697 142.037 219.89L142.119 219.972C142.995 220.852 144.268 222.548 143.13 223.687C141.671 225.146 139.639 222.981 138.856 221.852C137.863 220.42 137.268 218.978 136.803 217.304ZM232.34 210.178C230.488 212.141 227.634 213.043 225.122 213.79C222.143 214.676 219.074 215.205 216.002 215.64C213.033 216.061 210.087 216.436 207.165 216.919C209.375 216.946 211.585 216.963 213.79 217.002C216.333 217.048 218.875 217.103 221.417 217.177C223.268 217.231 225.44 216.977 227.2 217.665C227.517 217.789 227.813 217.961 228.072 218.17C229.551 215.539 230.968 212.872 232.34 210.178ZM118.104 191.827C120.037 191.213 121.854 190.398 123.904 190.609C124.448 190.665 124.838 191.196 124.541 191.72C123.57 193.429 121.991 194.394 120.436 195.538L120.299 195.639C118.598 196.905 116.771 198.059 114.921 199.098C111.735 200.886 108.88 195.768 112.097 194.266C114.033 193.362 116.066 192.475 118.104 191.827ZM152.906 187.383C155.864 187.578 158.819 187.71 161.78 187.83C165.21 187.969 164.057 193.249 161.192 192.18C158.361 191.124 155.53 190.082 152.674 189.097C151.805 188.797 151.875 187.369 152.851 187.381L152.906 187.383ZM77.0542 177.99C77.8206 177.936 78.5937 178.103 79.3613 178.178L80.1781 178.257C81.8618 178.425 83.4405 178.631 85.0462 179.317C88.009 180.582 86.4177 185.346 83.4434 185.237C81.2451 185.156 79.3653 184.212 77.509 183.112C75.8862 182.151 74.8913 180.949 73.7954 179.439C73.4325 178.939 73.9383 178.379 74.4325 178.329C75.3032 178.24 76.1833 178.051 77.0542 177.99ZM225.571 168.26C225.081 171.32 223.864 174.188 222.03 176.686C221.109 177.941 219.491 177.988 218.577 176.686C217.285 174.843 218.082 172.732 219.055 170.963L219.343 170.444C219.779 169.667 220.449 168.534 221.213 167.751L221.226 167.671C221.636 164.467 226.076 165.107 225.571 168.26ZM105.956 148.619C106.693 147.955 108.051 148.154 108.29 149.235C108.625 150.749 108.829 152.455 108.61 153.992C108.491 154.825 108.446 155.76 108.119 156.537C107.767 157.371 107.09 158.013 106.452 158.641C105.178 159.894 102.493 159.479 102.152 157.505L102.109 157.263C101.937 156.329 101.718 155.331 101.972 154.405C102.164 153.706 102.592 152.994 102.947 152.346L103.022 152.208C103.732 150.884 104.839 149.624 105.956 148.619ZM209.589 151.84L209.855 151.843C211.913 151.884 215.675 152.385 215.695 154.929C215.7 155.528 215.256 156.149 214.661 156.287C213.431 156.573 212.636 155.846 211.759 155.111C211.042 154.51 210.207 154.031 209.339 153.685C208.401 153.312 208.462 151.838 209.589 151.84Z" fill="#4751AD"/>
<path fill-rule="evenodd" clip-rule="evenodd" d="M216.105 77.1919C214.31 64.2381 210.205 51.6607 209.616 38.5124C209.265 32.886 208.915 27.2593 208.564 21.6323C208.431 18.1181 203.868 16.9324 202.125 20.0458C198.163 15.6503 191.068 16.2976 185.656 16.4311C153.793 17.5606 123.515 39.1117 112.577 69.1604C112.314 69.8768 112.393 70.6393 112.691 71.3215C107.593 88.3288 125.622 99.2802 137.919 106.863C142.907 112.136 148.77 116.518 155.391 119.518C163.007 123.103 171.485 125.101 179.9 125.292C181.747 125.335 182.857 123.841 182.99 122.294C185.675 121.669 190.269 122.391 191.688 119.639C207.878 112.604 218.427 94.7747 216.105 77.1919Z" fill="#E0E3FD"/>
<path fill-rule="evenodd" clip-rule="evenodd" d="M208.53 31.2526C208.484 30.8325 209.09 30.8197 209.215 31.1598C210.241 33.9563 211.305 36.7336 212.118 39.6007C212.901 42.364 213.466 45.1899 214.037 48.0039C214.985 52.6737 215.8 57.3779 216.475 62.0973C217.916 60.9715 219.8 60.869 221.575 61.7451C222.408 62.156 222.727 63.2425 222.527 64.0854C222.367 64.7617 222.171 65.4346 221.935 66.0937C222.438 66.5389 222.866 67.0881 223.176 67.7185C223.993 69.3792 223.73 71.1223 222.997 72.7065C223.052 72.801 223.108 72.896 223.16 72.9968C224.221 75.058 223.653 76.9039 222.878 78.915C222.297 80.4199 222.621 82.1143 221.369 83.2504C220.934 84.6493 220.281 85.9504 219.33 87.1257C219.114 87.5211 218.791 87.8389 218.407 88.0728C218.311 90.2806 218.078 92.481 217.639 94.6621C215.938 103.131 210.538 110.677 203.853 115.999C197.311 121.207 189.629 124.319 181.339 125.325C177.314 125.814 173.283 125.66 169.29 124.962L168.793 124.873C165.109 124.205 160.651 123.099 158.104 120.318C156.765 118.857 157.548 115.639 159.916 115.943C161.171 116.103 162.263 116.305 163.444 116.768C164.366 117.129 165.289 117.477 166.235 117.772C168.046 118.337 169.92 118.777 171.801 119.02C175.72 119.527 179.793 119.393 183.667 118.628C190.712 117.238 197.556 114.031 202.902 109.202C209.116 103.59 212.759 96.3254 213.295 87.9471C213.892 78.6161 212.815 69.0611 211.921 59.7784C211.456 54.9496 210.866 50.1306 210.155 45.3319C209.46 40.6432 209.044 35.9611 208.53 31.2526ZM153.533 1.12205L153.834 1.07578C165.798 -0.745482 178.385 -0.616354 189.63 4.32262C191.785 5.27005 193.895 6.41245 195.881 7.7381C197.304 7.5895 198.735 7.46896 200.14 7.44921C201.908 7.42602 203.634 8.3451 203.852 10.1346C205.509 10.3407 207.035 10.9506 208.011 12.1706C208.391 12.6456 208.646 13.1953 208.775 13.7679C209.793 14.0087 210.792 14.3778 211.74 14.8645C212.89 15.4572 213.554 17.1064 213.148 18.3264C213.054 18.6033 212.947 18.8731 212.828 19.1371L212.736 19.334L212.79 19.4084C213.709 20.8858 213.07 22.8242 211.662 23.706C210.606 24.3674 209.427 24.8942 208.213 25.1491C208.314 25.6358 208.405 26.1254 208.48 26.6207C208.508 26.8214 208.251 26.9646 208.136 26.7668C208.426 27.6696 208.79 28.6184 209.227 29.613C209.484 30.1997 208.66 30.7208 208.345 30.1281C207.51 28.5476 206.991 26.9271 206.233 25.2979C205.532 25.2521 204.833 25.0918 204.161 24.7854C203.72 24.585 203.385 24.2472 203.145 23.8435C203.13 23.8606 203.122 23.8807 203.108 23.9007C200.849 26.8068 196.436 27.8261 193.025 28.7452C189.361 29.7333 185.612 30.3429 181.849 30.7924C175.277 31.574 168.654 31.7201 162.052 32.0238C161.614 32.0436 161.178 32.0656 160.741 32.0868C158.059 34.4404 154.605 35.9029 151.062 36.3475C149.267 36.5726 147.143 36.5153 145.13 36.0566C144.401 36.801 143.48 37.3525 142.475 37.6357C142.294 41.3861 140.204 44.937 137.044 47.0068L137.1 47.2298C137.885 50.4323 137.875 53.9331 135.06 56.159C134.678 56.4602 134.262 56.7184 133.824 56.9326L133.92 57.1538C135.374 60.5536 135.839 64.309 133.105 67.1301C131.997 68.2735 130.051 68.0027 129.22 66.6903L129.179 66.6239C129.133 66.5457 129.083 66.4707 129.036 66.3939C128.961 66.5457 128.848 66.6737 128.68 66.7453C127.641 67.1922 127.226 66.8626 126.279 66.4017C125.403 65.9722 124.478 65.6515 123.534 65.4027C122.764 65.202 121.997 65.0588 121.224 64.9758C116.342 66.8426 113.188 72.569 113.937 77.9431C114.344 80.8693 115.95 83.7668 118.749 84.9808C119.973 85.5134 121.413 85.7367 122.738 85.5563C124.533 85.3129 125.912 84.1823 127.77 84.8291C128.502 85.0839 128.961 85.6597 129 86.447C129.067 87.6836 128.628 88.6113 127.89 89.2985C129.192 90.3865 130.243 91.8982 131.373 93.1039C132.787 94.6125 134.221 96.1214 135.749 97.5129C137.192 98.8328 138.726 100.058 140.351 101.147L140.522 101.259C142.559 102.586 145.125 103.764 145.223 106.538C145.254 107.374 144.747 108.141 144.061 108.568C141.494 110.16 138.7 108.069 136.688 106.538C135.878 105.922 135.091 105.284 134.332 104.622C133.826 104.662 133.273 104.58 132.698 104.324C132.329 104.164 131.968 103.975 131.613 103.775C130.46 104.064 129.372 103.809 128.477 103.205C127.186 103.523 125.818 103.56 124.656 103.305C123.594 103.07 122.647 102.569 121.865 101.896C120.234 102.418 118.422 102.32 116.814 101.332C115.849 100.74 115.097 99.8951 114.687 98.9073C114.479 98.581 114.346 98.2003 114.336 97.7809L114.335 97.6217C112.933 97.6532 111.528 97.1722 110.443 96.0616C109.447 95.042 108.961 93.771 108.906 92.4795C107.495 92.0789 106.204 91.2566 105.222 89.9885C103.597 87.8869 103.38 85.29 104.215 82.9709C104.161 82.8477 104.112 82.7218 104.069 82.5958C102.773 80.7662 101.917 78.5587 101.985 76.3455C101.994 76.0019 102.04 75.6643 102.109 75.3293C100.832 74.6505 99.8933 73.4594 99.7931 71.9448C99.7159 70.7566 100.142 69.5941 100.912 68.7151C100.537 67.8189 100.371 66.8455 100.486 65.872C100.603 64.8727 100.955 64.0052 101.471 63.2811C101.459 63.0177 101.473 62.7511 101.516 62.4791C101.465 62.2128 101.422 61.938 101.399 61.6577C101.155 58.5881 103.273 55.9024 105.852 54.4851C106.53 54.1129 107.263 53.8094 107.996 53.5517C108.528 53.3628 109.33 53.2998 109.799 52.9533C109.779 52.939 109.973 52.6874 110.008 52.5525C110.045 52.3864 110.085 52.2232 110.105 52.0543C110.182 51.3442 110.125 50.6141 110.111 49.9012C110.048 46.6658 110.148 43.4161 110.489 40.1979C111.121 34.2311 112.681 28.393 115.72 23.1792C118.271 18.81 121.762 15.1194 125.766 12.0586C133.742 5.96499 143.694 2.65172 153.533 1.12205ZM116.573 75.3263C115.535 72.8302 120.422 72.8055 121.715 72.9242L121.753 72.9278C124.661 73.2173 129.209 74.6168 130.399 77.553C130.892 78.7684 129.433 80.0858 128.266 79.6861C127.124 79.2949 126.484 78.4549 125.567 77.7199C125.327 77.5269 125.076 77.3468 124.821 77.173C124.955 77.6014 125.17 77.9971 125.469 78.2926L125.539 78.359C126.947 79.6239 124.43 81.6118 123.495 79.9366C122.998 79.0453 122.799 78.0672 122.954 77.0551C123 76.7565 123.08 76.4833 123.197 76.2228C123.104 76.1764 123.013 76.126 122.919 76.0813L122.751 76.0035C121.631 75.4949 116.851 73.4984 116.889 75.2836C116.894 75.4812 116.637 75.4815 116.573 75.3263Z" fill="#4751AD"/>
<path fill-rule="evenodd" clip-rule="evenodd" d="M183.81 102.767C181.886 101.982 180.17 100.672 178.915 98.9989C178.478 98.4173 178.365 97.8031 178.457 97.2413C178.56 96.6097 178.933 96.0372 179.443 95.6531C179.954 95.2679 180.593 95.078 181.211 95.1748C181.748 95.259 182.283 95.5531 182.706 96.1631L182.794 96.2851C183.54 97.295 184.512 98.1235 185.62 98.6576C186.688 99.1723 187.882 99.4125 189.118 99.2728C191.472 99.0069 193.094 97.7334 194.818 96.0042C195.032 95.7859 195.246 95.5607 195.461 95.3319C195.597 95.1245 195.785 94.9912 195.994 94.9213C196.226 94.8436 196.489 94.848 196.73 94.932C196.962 95.013 197.169 95.1665 197.308 95.3708C197.44 95.565 197.515 95.8048 197.491 96.0808C197.333 97.8729 196.396 99.4722 195.066 100.728C193.589 102.123 191.63 103.088 189.786 103.426C187.755 103.799 185.685 103.532 183.81 102.767ZM190.744 75.1203C192.906 76.4345 196.199 79.499 193.874 82.7571C191.137 85.6299 187.197 82.336 185.255 80.8464C183.455 79.6919 181.432 82.6612 183.102 84.0092C197.133 94.4012 202.827 75.464 191.838 73.5751C190.628 73.367 190.178 74.7138 190.744 75.1203ZM165.601 63.0318C165.84 60.0666 170.354 59.3933 170.803 62.3274C171.205 64.9558 170.732 67.3703 169.548 69.7368C168.418 71.9975 165.575 70.9428 165.36 68.8842C165.072 66.1247 165.452 64.8763 165.601 63.0318ZM199.964 61.719C200.593 60.8945 201.502 60.3315 202.591 60.6496C205.992 61.644 204.99 66.4751 203.795 68.8266C203.146 70.1036 201.048 70.4274 200.1 69.303C198.554 67.4694 197.814 63.8077 199.779 62.0016C199.832 61.9083 199.891 61.8141 199.964 61.719ZM169.5 50.0571L170.038 49.963C171.7 49.6754 173.767 49.399 174.943 50.7359C175.566 51.4448 175.781 52.7625 174.943 53.441C173.468 54.635 171.838 54.1723 170.071 54.2734C168.615 54.357 167.215 54.598 165.812 54.9992C162.735 55.879 160.228 57.4853 157.599 59.249C157.255 59.4803 156.903 59.0391 157.067 58.7164C158.584 55.7436 161.524 53.3016 164.47 51.813C166.041 51.0185 167.761 50.3594 169.5 50.0571ZM196.863 48.7254L197.274 48.8096C201.75 49.7454 207.565 51.6149 209.684 56.0126C209.765 56.6344 209.679 56.7677 209.61 56.8547L209.587 56.8837C209.53 56.9581 209.484 57.0606 209.215 57.1452C209.14 57.1274 209.064 57.1085 208.988 57.0885C208.017 56.8338 207.248 56.483 206.504 56.1189L205.697 55.7213C204.761 55.2621 203.817 54.8197 202.816 54.4931C200.68 53.7962 198.483 53.3053 196.253 53.0431C195.769 52.9864 195.304 52.8231 194.936 52.5433C194.588 52.2778 194.321 51.9101 194.2 51.4214C194.042 50.7889 194.088 50.31 194.427 49.7394C194.682 49.3109 195.047 49.0139 195.466 48.8433C195.893 48.6695 196.38 48.6285 196.863 48.7254Z" fill="#4751AD"/>
<path fill-rule="evenodd" clip-rule="evenodd" d="M216.359 76.8637C212.884 80.4556 207.083 81.4863 202.46 79.56C190.59 74.5984 196.4 59.1229 205.555 54.967C206.698 54.6819 208.226 54.0053 209.619 53.8518C209.745 53.79 210.019 53.9689 210.351 53.7997C220.446 54.9272 222.745 70.6037 216.359 76.8637ZM178.071 77.7831C174.174 82.9543 166.928 84.5496 161.008 82.1457C149.313 77.5383 153.461 63.8154 161.463 58.4355C178.365 52.0818 185.345 68.2484 178.071 77.7831ZM152.719 66.3252C152.708 66.3201 152.697 66.3175 152.686 66.3123C152.748 66.2851 152.81 66.2579 152.871 66.2302C152.851 66.2826 152.829 66.3344 152.81 66.3868C152.78 66.3659 152.753 66.3416 152.719 66.3252ZM224.405 60.7355C223.451 60.7375 222.072 60.8944 221.282 61.5566C219.334 54.9848 212.144 48.9025 205.891 53.3376C200.967 54.9218 197.313 58.4352 195.236 63.1062C191.492 60.878 185.604 61.8295 182.357 64.776C180.231 57.7466 174.997 55.2851 168.768 54.9218C161.969 53.8077 155.192 60.4134 153.078 65.7125C151.319 65.5124 148.692 64.9526 147.038 66.0381C136.304 63.2218 117.536 61.6691 115.353 63.2339C113.798 63.8308 112.945 67.5031 115.117 67.7013C117.01 67.4324 114.896 65.0105 116.804 64.7462C126.971 64.1157 136.841 66.164 146.9 67.0236C147.798 68.2321 150.7 68.6364 152.248 68.1508C149.81 77.14 155.073 83.2558 162.96 85.0876C175.171 87.8938 185.795 76.9656 182.602 65.5988C186.301 63.7578 190.556 63.8368 194.586 64.8066C187.852 89.5988 227.766 88.4865 221.532 62.4061C225.68 64.4705 226.581 61.152 224.405 60.7355Z" fill="#4751AD"/>
</svg>
