<svg width="237" height="48" viewBox="0 0 237 48" fill="none" xmlns="http://www.w3.org/2000/svg">
<rect y="5" width="27" height="33" rx="10" fill="#B9C0FD"/>
<path d="M10.88 32.6C8.90667 32.6 7.36 32.2533 6.24 31.56C5.12 30.8667 4.33333 29.84 3.88 28.48C3.45333 27.0933 3.24 25.3867 3.24 23.36C3.24 22.4267 3.28 21.4267 3.36 20.36C2.32 19.96 1.8 19.4667 1.8 18.88C1.8 18.3733 1.96 18.0133 2.28 17.8C2.62667 17.56 3.01333 17.3733 3.44 17.24C3.89333 17.1067 4.26667 16.9467 4.56 16.76C4.61333 16.44 4.69333 15.96 4.8 15.32C4.90667 14.6533 5.01333 13.96 5.12 13.24C5.25333 12.4933 5.37333 11.84 5.48 11.28C5.58667 10.6933 5.65333 10.3333 5.68 10.2C5.38667 10.04 4.98667 9.94667 4.48 9.92C4 9.86666 3.57333 9.76 3.2 9.6C2.82667 9.44 2.64 9.10667 2.64 8.6C2.64 8.06667 2.78667 7.68 3.08 7.44C3.37333 7.17333 3.85333 6.98666 4.52 6.88C6.22667 6.58666 7.86667 6.34667 9.44 6.16C11.0133 5.97333 12.6533 5.88 14.36 5.88C14.7333 5.88 15.24 5.88 15.88 5.88C16.52 5.88 17.16 5.93333 17.8 6.04C18.4667 6.12 19.0267 6.29333 19.48 6.56C19.9333 6.82667 20.16 7.22667 20.16 7.76C20.16 8.05333 20.0667 8.30667 19.88 8.52C19.72 8.73333 19.5333 8.84 19.32 8.84H13.32C13.2133 8.84 12.92 8.85333 12.44 8.88C11.96 8.88 11.44 8.90667 10.88 8.96C10.32 9.01333 9.85333 9.12 9.48 9.28C9.08 9.44 8.76 9.93333 8.52 10.76C8.28 11.5867 8.10667 12.5733 8 13.72C7.89333 14.84 7.84 15.9467 7.84 17.04C8.18667 17.0133 8.70667 16.9867 9.4 16.96C10.0933 16.9067 10.8133 16.8667 11.56 16.84C12.3333 16.8133 12.9733 16.8 13.48 16.8H15.08C15.6933 16.8 16.1067 16.9333 16.32 17.2C16.56 17.4667 16.68 17.8267 16.68 18.28C16.68 19.1867 16.1733 19.68 15.16 19.76L8.4 20.2C7.65333 20.2267 7.14667 20.36 6.88 20.6C6.64 20.8133 6.48 21.2267 6.4 21.84C6.34667 22.3467 6.30667 22.7333 6.28 23C6.28 23.2667 6.28 23.5067 6.28 23.72C6.30667 23.9067 6.32 24.08 6.32 24.24C6.32 24.3733 6.32 24.4933 6.32 24.6C6.32 25.2133 6.37333 25.8667 6.48 26.56C6.58667 27.2267 6.82667 27.8267 7.2 28.36C7.6 28.8933 8.21333 29.2533 9.04 29.44H11.08C12.4133 29.44 13.8267 29.3333 15.32 29.12C16.84 28.9067 18.1733 28.6667 19.32 28.4C19.3733 28.3733 19.44 28.36 19.52 28.36C19.6 28.36 19.6533 28.36 19.68 28.36C20.0533 28.36 20.2933 28.4933 20.4 28.76C20.5333 29.0267 20.6 29.32 20.6 29.64C20.6 30.84 19.3867 31.68 16.96 32.16C16.1067 32.3467 15.1333 32.4667 14.04 32.52C12.9467 32.5733 11.8933 32.6 10.88 32.6ZM27.4488 32.2C27.0488 32.2 26.7554 32.1067 26.5688 31.92C26.3821 31.7333 26.2488 31.4667 26.1688 31.12C26.0354 30.6667 25.9688 30.1867 25.9688 29.68V28.12C25.9688 27.2667 25.9954 26.5333 26.0488 25.92C26.1021 25.28 26.1288 24.5867 26.1288 23.84C26.1288 23.5733 26.1154 23.2933 26.0888 23C26.0888 22.68 26.0754 22.3467 26.0488 22C25.9421 20.6933 25.7954 19.32 25.6087 17.88C25.4221 16.44 25.3288 15.1333 25.3288 13.96V12.4C25.4888 12.0267 25.6354 11.8 25.7688 11.72C25.9288 11.64 26.1421 11.6 26.4088 11.6C27.0488 11.6 27.5021 11.8533 27.7688 12.36C28.0354 12.84 28.2088 13.4133 28.2888 14.08C28.3954 14.72 28.4621 15.28 28.4888 15.76C28.5154 15.9467 28.5554 16.3467 28.6088 16.96C28.6888 17.5733 28.7688 18.2667 28.8487 19.04C28.9288 19.7867 28.9954 20.5067 29.0488 21.2C29.1288 21.8933 29.1688 22.4267 29.1688 22.8C29.5954 21.92 30.1021 21.0133 30.6888 20.08C31.2754 19.12 31.8621 18.2267 32.4488 17.4C33.0621 16.5733 33.6088 15.9067 34.0888 15.4C34.7821 14.6267 35.5954 14.0267 36.5288 13.6C37.4888 13.1467 38.4354 12.92 39.3688 12.92C40.4621 12.92 41.4221 13.2267 42.2488 13.84C43.0754 14.4533 43.7821 15.2533 44.3688 16.24C44.9821 17.2267 45.4888 18.2933 45.8888 19.44C46.2888 20.56 46.6088 21.6533 46.8488 22.72C47.1954 24.1333 47.4488 25.3733 47.6088 26.44C47.7954 27.5067 47.9554 28.72 48.0888 30.08C48.0888 30.6667 47.9688 31.1333 47.7288 31.48C47.4888 31.8267 47.1954 32 46.8488 32C46.3421 32 45.9821 31.8933 45.7688 31.68C45.5554 31.44 45.4088 31.0667 45.3288 30.56C45.1421 29.5467 44.9554 28.4 44.7688 27.12C44.6088 25.84 44.3821 24.5467 44.0887 23.24C43.7954 21.9067 43.3688 20.6933 42.8088 19.6C42.5954 19.0933 42.3288 18.5733 42.0088 18.04C41.6888 17.5067 41.3021 17.0533 40.8488 16.68C40.3954 16.3067 39.8354 16.12 39.1688 16.12C38.2888 16.12 37.3954 16.5067 36.4888 17.28C35.6088 18.0533 34.7688 19.0533 33.9688 20.28C33.1688 21.5067 32.4354 22.8267 31.7688 24.24C31.1021 25.6267 30.5421 26.9467 30.0888 28.2C29.9554 28.6267 29.7821 29.1067 29.5688 29.64C29.3821 30.1467 29.1821 30.6267 28.9688 31.08C28.7821 31.4533 28.5688 31.7333 28.3288 31.92C28.1154 32.1067 27.8221 32.2 27.4488 32.2ZM53.4019 33.4C53.1085 33.4 52.8819 33.2667 52.7219 33C52.5885 32.7333 52.4952 32.4267 52.4419 32.08C52.3885 31.7333 52.3352 31.44 52.2819 31.2V28.04C52.2819 26.44 52.3485 24.8 52.4819 23.12C52.6419 21.44 52.7219 19.8 52.7219 18.2C52.7219 17.4267 52.6685 16.6533 52.5619 15.88C52.4819 15.1067 52.3885 14.4533 52.2819 13.92C52.2552 13.7867 52.2285 13.6667 52.2019 13.56C52.2019 13.4533 52.2019 13.3467 52.2019 13.24C52.2019 12.8933 52.3085 12.6667 52.5219 12.56C52.7352 12.4533 53.0952 12.4 53.6019 12.4C54.2152 12.4 54.6685 12.6667 54.9619 13.2C55.2552 13.7333 55.4685 14.36 55.6019 15.08C55.7619 15.7733 55.9085 16.4 56.0419 16.96C56.8152 16.0267 57.6552 15.3467 58.5619 14.92C59.4685 14.4933 60.2285 14.12 60.8419 13.8C61.4285 13.5067 62.0152 13.28 62.6019 13.12C63.2152 12.9333 63.8952 12.84 64.6419 12.84C65.3885 12.84 66.0819 13.0533 66.7219 13.48C67.3885 13.88 67.7219 14.32 67.7219 14.8C67.7219 15.36 67.5485 15.7733 67.2019 16.04C66.8552 16.3067 66.4552 16.44 66.0019 16.44C65.8685 16.44 65.7352 16.4267 65.6019 16.4C65.4952 16.3467 65.3752 16.3067 65.2419 16.28C65.0552 16.2 64.8419 16.1333 64.6019 16.08C64.3885 16.0267 64.1752 16 63.9619 16C63.1352 16 62.3352 16.16 61.5619 16.48C60.7885 16.7733 60.1352 17.0667 59.6019 17.36C58.6685 17.8667 57.9352 18.44 57.4019 19.08C56.8952 19.6933 56.4685 20.2667 56.1219 20.8C55.9352 21.8133 55.8152 22.8 55.7619 23.76C55.7085 24.72 55.6685 25.4667 55.6419 26C55.6152 26.56 55.5885 27.1467 55.5619 27.76C55.5352 28.3733 55.4952 28.9867 55.4419 29.6C55.3885 30.24 55.3085 30.8533 55.2019 31.44C55.0952 32.0267 54.9085 32.5067 54.6419 32.88C54.3752 33.2267 53.9619 33.4 53.4019 33.4ZM72.7728 6.84C71.8928 6.84 71.1861 6.64 70.6528 6.24C70.1461 5.81333 69.8928 5.26666 69.8928 4.6C69.8928 3.98667 70.1861 3.52 70.7728 3.2C71.3595 2.85333 72.1061 2.68 73.0128 2.68C73.9195 2.68 74.6261 2.89333 75.1328 3.32C75.6395 3.72 75.8928 4.28 75.8928 5C75.8928 5.58667 75.5995 6.04 75.0128 6.36C74.4528 6.68 73.7061 6.84 72.7728 6.84ZM70.6928 32.4C70.3195 32.4 70.0261 32.16 69.8128 31.68C69.6261 31.2 69.4928 30.5867 69.4128 29.84C69.3595 29.0933 69.3328 28.32 69.3328 27.52C69.3328 27.1467 69.3328 26.7733 69.3328 26.4C69.3595 26 69.3728 25.6267 69.3728 25.28C69.3728 25.1733 69.4128 24.8267 69.4928 24.24C69.5728 23.6267 69.6661 22.92 69.7728 22.12C69.8795 21.32 69.9861 20.5333 70.0928 19.76C70.2261 18.96 70.3328 18.3333 70.4128 17.88C70.4928 17.5333 70.5861 17.08 70.6928 16.52C70.7995 15.9333 70.9861 15.4133 71.2528 14.96C71.5461 14.48 71.9595 14.24 72.4928 14.24C73.1061 14.24 73.5328 14.36 73.7728 14.6C74.0395 14.8133 74.1728 15.16 74.1728 15.64C74.1728 15.7733 74.1595 15.9067 74.1328 16.04C74.1328 16.1733 74.1195 16.32 74.0928 16.48C73.9595 17.3333 73.7861 18.4 73.5728 19.68C73.3861 20.9333 73.2128 22.2533 73.0528 23.64C72.9195 25 72.8795 26.2933 72.9328 27.52C72.9595 27.8133 72.9861 28.16 73.0128 28.56C73.0661 28.9333 73.0928 29.3067 73.0928 29.68C73.0928 30.3733 72.9461 31 72.6528 31.56C72.3595 32.12 71.7061 32.4 70.6928 32.4ZM95.1216 47.48C95.0416 47.48 94.9482 47.48 94.8416 47.48C94.7616 47.48 94.6682 47.4667 94.5616 47.44C93.6816 47.2533 93.0149 46.88 92.5616 46.32C92.1082 45.76 91.8016 45.1067 91.6416 44.36C91.4816 43.6133 91.4016 42.8667 91.4016 42.12C91.4016 40.7867 91.4949 39.2267 91.6816 37.44C91.8949 35.6533 92.1749 33.8133 92.5216 31.92C92.8949 30 93.3216 28.2267 93.8016 26.6C92.9216 27.88 91.8416 28.96 90.5616 29.84C89.3082 30.72 88.0416 31.3867 86.7616 31.84C85.4816 32.2933 84.3616 32.52 83.4016 32.52C82.3082 32.52 81.3349 32.2267 80.4816 31.64C79.6549 31.0267 79.0016 30.2533 78.5216 29.32C78.0416 28.36 77.8016 27.3467 77.8016 26.28C77.8016 24.44 78.2016 22.6933 79.0016 21.04C79.8282 19.36 80.9349 17.88 82.3216 16.6C83.7082 15.2933 85.2816 14.2667 87.0416 13.52C88.8282 12.7733 90.6816 12.4 92.6016 12.4C93.8282 12.4 94.9082 12.68 95.8416 13.24C96.7749 13.8 97.4149 14.56 97.7616 15.52C97.8149 15.68 97.8682 15.88 97.9216 16.12C97.9749 16.3333 98.0016 16.5467 98.0016 16.76C98.0016 17.0533 97.9349 17.3467 97.8016 17.64C97.6949 17.9333 97.4949 18.1867 97.2016 18.4C97.6282 18.7467 97.9349 19.1067 98.1216 19.48C98.3082 19.8267 98.4016 20.3067 98.4016 20.92C98.4016 21.8267 98.2682 22.8 98.0016 23.84C97.7616 24.88 97.4949 25.9067 97.2016 26.92C96.9082 27.9067 96.6682 28.8 96.4816 29.6C96.2416 30.6133 95.9616 31.8 95.6416 33.16C95.3482 34.5467 95.0816 35.92 94.8416 37.28C94.6282 38.64 94.5216 39.84 94.5216 40.88C94.5216 41.52 94.5749 42.0533 94.6816 42.48C94.8149 42.9333 95.0149 43.24 95.2816 43.4C95.7349 43.6667 96.0816 44.0267 96.3216 44.48C96.5882 44.96 96.7216 45.4267 96.7216 45.88C96.7216 46.3067 96.5882 46.68 96.3216 47C96.0549 47.32 95.6549 47.48 95.1216 47.48ZM83.5616 29.84C84.4416 29.84 85.3082 29.6133 86.1616 29.16C87.0149 28.7067 87.8416 28.12 88.6416 27.4C89.4416 26.68 90.1882 25.92 90.8816 25.12C91.4416 24.5067 91.9616 23.92 92.4416 23.36C92.9482 22.7733 93.4949 22.1467 94.0816 21.48C94.5616 20.8933 95.0016 20.3067 95.4016 19.72C95.8282 19.1067 96.0416 18.4933 96.0416 17.88C96.0416 17.56 95.9882 17.28 95.8816 17.04C95.5882 16.2667 95.1349 15.68 94.5216 15.28C93.9349 14.88 93.4282 14.68 93.0016 14.68C91.5616 14.68 90.1082 15 88.6416 15.64C87.2016 16.2533 85.8682 17.0933 84.6416 18.16C83.4149 19.2 82.4282 20.3867 81.6816 21.72C80.9349 23.0533 80.5616 24.44 80.5616 25.88C80.5616 26.4133 80.6416 26.9867 80.8016 27.6C80.9616 28.2133 81.2549 28.7467 81.6816 29.2C82.1082 29.6267 82.7349 29.84 83.5616 29.84ZM108.462 32.6C107.102 32.6 106.036 32.2267 105.262 31.48C104.489 30.7067 103.929 29.72 103.582 28.52C103.262 27.2933 103.102 26 103.102 24.64C103.102 23.7067 103.116 22.96 103.142 22.4C103.169 21.8133 103.222 21.2133 103.302 20.6C103.409 19.9867 103.556 19.1467 103.742 18.08C103.849 17.5467 103.956 17.0133 104.062 16.48C104.169 15.92 104.316 15.3867 104.502 14.88C104.716 14.2667 104.942 13.84 105.182 13.6C105.449 13.3333 105.676 13.2 105.862 13.2C106.369 13.2 106.742 13.3467 106.982 13.64C107.249 13.9067 107.382 14.2533 107.382 14.68C107.382 15.2667 107.302 15.8133 107.142 16.32C106.982 16.8267 106.849 17.3067 106.742 17.76C106.556 18.96 106.396 19.92 106.262 20.64C106.129 21.3333 106.022 21.9733 105.942 22.56C105.889 23.12 105.862 23.8133 105.862 24.64C105.862 25.04 105.889 25.52 105.942 26.08C106.022 26.64 106.156 27.1867 106.342 27.72C106.529 28.2533 106.809 28.7067 107.182 29.08C107.556 29.4267 108.049 29.6 108.662 29.6C109.302 29.6 109.902 29.3733 110.462 28.92C111.049 28.44 111.462 28.0533 111.702 27.76C113.516 25.4667 115.129 23.2267 116.542 21.04C117.956 18.8533 119.356 16.4667 120.742 13.88C120.929 13.5867 121.076 13.4 121.182 13.32C121.316 13.24 121.476 13.2 121.662 13.2C122.276 13.2 122.702 13.3067 122.942 13.52C123.182 13.7333 123.302 14.0933 123.302 14.6C123.302 14.92 123.262 15.3067 123.182 15.76C122.782 17.76 122.582 19.7467 122.582 21.72C122.582 23.0533 122.702 24.2933 122.942 25.44C123.182 26.5867 123.569 27.5333 124.102 28.28C124.502 28.7867 124.702 29.2267 124.702 29.6C124.702 30.0533 124.569 30.4133 124.302 30.68C124.062 30.9467 123.756 31.08 123.382 31.08C122.369 31.08 121.569 30.28 120.982 28.68C120.796 28.12 120.582 27.4133 120.342 26.56C120.129 25.68 119.929 24.8 119.742 23.92C119.556 23.04 119.436 22.3067 119.382 21.72C119.036 22.28 118.716 22.84 118.422 23.4C118.156 23.9333 117.809 24.5067 117.382 25.12C117.089 25.5467 116.742 26.04 116.342 26.6C115.942 27.1333 115.516 27.6933 115.062 28.28C114.129 29.4267 113.102 30.44 111.982 31.32C110.862 32.1733 109.689 32.6 108.462 32.6ZM139.715 33.6C137.688 33.6 135.848 33.3067 134.195 32.72C132.568 32.1067 131.275 31.16 130.315 29.88C129.355 28.5733 128.875 26.8933 128.875 24.84C128.875 23.2133 129.142 21.6267 129.675 20.08C130.235 18.5333 131.022 17.1333 132.035 15.88C133.048 14.6267 134.262 13.64 135.675 12.92C137.088 12.1733 138.662 11.8 140.395 11.8C141.595 11.8 142.675 12.0267 143.635 12.48C144.622 12.9333 145.408 13.5733 145.995 14.4C146.582 15.2267 146.875 16.2133 146.875 17.36C146.875 18.5867 146.608 19.76 146.075 20.88C145.568 21.9733 144.875 22.9467 143.995 23.8C143.115 24.6533 142.115 25.3333 140.995 25.84C139.902 26.32 138.755 26.56 137.555 26.56C136.515 26.56 135.542 26.48 134.635 26.32C133.728 26.1333 132.888 25.8533 132.115 25.48C132.115 26.4933 132.355 27.36 132.835 28.08C133.315 28.7733 133.928 29.3467 134.675 29.8C135.422 30.2267 136.195 30.5467 136.995 30.76C137.822 30.9467 138.582 31.04 139.275 31.04C139.835 31.04 140.395 31.0133 140.955 30.96C141.515 30.88 142.128 30.84 142.795 30.84C143.782 30.84 144.275 31.2667 144.275 32.12C144.275 32.7867 143.808 33.2133 142.875 33.4C142.368 33.5067 141.848 33.56 141.315 33.56C140.782 33.5867 140.248 33.6 139.715 33.6ZM137.555 23.36C138.488 23.36 139.462 23.1733 140.475 22.8C141.488 22.4267 142.342 21.84 143.035 21.04C143.755 20.24 144.115 19.2267 144.115 18C144.115 16.9067 143.768 16.0267 143.075 15.36C142.408 14.6667 141.515 14.32 140.395 14.32C139.382 14.32 138.382 14.56 137.395 15.04C136.435 15.4933 135.555 16.12 134.755 16.92C133.955 17.6933 133.315 18.5733 132.835 19.56C132.355 20.5467 132.115 21.56 132.115 22.6C132.728 22.92 133.502 23.1333 134.435 23.24C135.368 23.32 136.408 23.36 137.555 23.36ZM152.943 24.12C152.517 24.12 152.223 24.04 152.063 23.88C151.903 23.72 151.823 23.4533 151.823 23.08C151.823 22.2533 152.037 21.8133 152.463 21.76C153.77 21.6267 154.89 21.5333 155.823 21.48C156.757 21.4 157.61 21.3467 158.383 21.32C159.157 21.2667 159.943 21.2267 160.743 21.2C161.543 21.1733 162.437 21.1467 163.423 21.12C163.69 21.12 163.943 21.28 164.183 21.6C164.423 21.92 164.543 22.3333 164.543 22.84C164.543 23 164.477 23.2133 164.343 23.48C164.21 23.7467 164.05 23.8667 163.863 23.84C162.583 23.7867 161.09 23.8267 159.383 23.96C157.703 24.0667 155.557 24.12 152.943 24.12ZM174.224 33.6C172.357 33.12 170.944 32.1333 169.984 30.64C169.024 29.1467 168.544 27.4933 168.544 25.68C168.544 23.9733 168.917 22.3333 169.664 20.76C170.437 19.16 171.464 17.7333 172.744 16.48C174.024 15.2 175.477 14.2 177.104 13.48C178.757 12.7333 180.464 12.36 182.224 12.36C183.264 12.36 184.077 12.3867 184.664 12.44C185.25 12.4933 185.917 12.6667 186.664 12.96C186.69 12.56 186.757 12 186.864 11.28C186.97 10.56 187.09 9.8 187.224 9C187.357 8.17333 187.464 7.44 187.544 6.8C187.624 6.21333 187.704 5.62666 187.784 5.04C187.89 4.42666 188.037 3.84 188.224 3.28C188.65 2.10666 189.264 1.52 190.064 1.52C190.677 1.52 190.984 1.98666 190.984 2.92C190.984 3.05333 190.97 3.21333 190.944 3.4C190.944 3.56 190.93 3.74667 190.904 3.96C190.477 7.18667 190.157 10.3867 189.944 13.56C189.757 16.7067 189.664 19.8533 189.664 23C189.664 24.3333 189.704 25.6533 189.784 26.96C189.864 28.24 189.957 29.56 190.064 30.92C190.117 31.64 189.984 32.2133 189.664 32.64C189.37 33.04 189.037 33.24 188.664 33.24C188.13 33.24 187.77 32.9067 187.584 32.24C187.317 31.3867 187.104 30.5067 186.944 29.6C186.784 28.6667 186.677 27.8933 186.624 27.28C185.637 28.3733 184.57 29.4 183.424 30.36C182.277 31.32 181.077 32.1067 179.824 32.72C178.597 33.3067 177.33 33.6 176.024 33.6H174.224ZM175.784 31.12C177.064 31.12 178.33 30.8 179.584 30.16C180.864 29.4933 182.037 28.64 183.104 27.6C184.17 26.5333 185.024 25.4 185.664 24.2C186.304 22.9733 186.624 21.8 186.624 20.68C186.624 19.6667 186.464 18.7333 186.144 17.88C185.85 17.0267 185.41 16.3467 184.824 15.84C184.264 15.3067 183.584 15.04 182.784 15.04C181.29 15.04 179.864 15.3333 178.504 15.92C177.17 16.5067 175.97 17.3067 174.904 18.32C173.864 19.3333 173.037 20.4933 172.424 21.8C171.837 23.1067 171.544 24.4667 171.544 25.88V27.68C171.81 28.6933 172.29 29.52 172.984 30.16C173.677 30.8 174.61 31.12 175.784 31.12ZM206.16 33.6C204.134 33.6 202.294 33.3067 200.64 32.72C199.014 32.1067 197.72 31.16 196.76 29.88C195.8 28.5733 195.32 26.8933 195.32 24.84C195.32 23.2133 195.587 21.6267 196.12 20.08C196.68 18.5333 197.467 17.1333 198.48 15.88C199.494 14.6267 200.707 13.64 202.12 12.92C203.534 12.1733 205.107 11.8 206.84 11.8C208.04 11.8 209.12 12.0267 210.08 12.48C211.067 12.9333 211.854 13.5733 212.44 14.4C213.027 15.2267 213.32 16.2133 213.32 17.36C213.32 18.5867 213.054 19.76 212.52 20.88C212.014 21.9733 211.32 22.9467 210.44 23.8C209.56 24.6533 208.56 25.3333 207.44 25.84C206.347 26.32 205.2 26.56 204 26.56C202.96 26.56 201.987 26.48 201.08 26.32C200.174 26.1333 199.334 25.8533 198.56 25.48C198.56 26.4933 198.8 27.36 199.28 28.08C199.76 28.7733 200.374 29.3467 201.12 29.8C201.867 30.2267 202.64 30.5467 203.44 30.76C204.267 30.9467 205.027 31.04 205.72 31.04C206.28 31.04 206.84 31.0133 207.4 30.96C207.96 30.88 208.574 30.84 209.24 30.84C210.227 30.84 210.72 31.2667 210.72 32.12C210.72 32.7867 210.254 33.2133 209.32 33.4C208.814 33.5067 208.294 33.56 207.76 33.56C207.227 33.5867 206.694 33.6 206.16 33.6ZM204 23.36C204.934 23.36 205.907 23.1733 206.92 22.8C207.934 22.4267 208.787 21.84 209.48 21.04C210.2 20.24 210.56 19.2267 210.56 18C210.56 16.9067 210.214 16.0267 209.52 15.36C208.854 14.6667 207.96 14.32 206.84 14.32C205.827 14.32 204.827 14.56 203.84 15.04C202.88 15.4933 202 16.12 201.2 16.92C200.4 17.6933 199.76 18.5733 199.28 19.56C198.8 20.5467 198.56 21.56 198.56 22.6C199.174 22.92 199.947 23.1333 200.88 23.24C201.814 23.32 202.854 23.36 204 23.36ZM226.389 31.8C225.535 31.8 224.762 31.5467 224.069 31.04C223.402 30.5333 222.802 29.8533 222.269 29C222.002 28.5733 221.749 28.1333 221.509 27.68C221.295 27.2267 221.082 26.7467 220.869 26.24C220.335 24.96 219.802 23.6133 219.269 22.2C218.762 20.7867 218.335 19.44 217.989 18.16C217.642 16.8533 217.469 15.7333 217.469 14.8C217.469 14.6133 217.455 14.4 217.429 14.16C217.429 13.92 217.429 13.6667 217.429 13.4C217.429 12.9733 217.482 12.6 217.589 12.28C217.695 11.96 217.949 11.8 218.349 11.8C219.042 11.8 219.522 12.0667 219.789 12.6C220.082 13.1333 220.375 14.2 220.669 15.8C220.775 16.3067 220.922 16.96 221.109 17.76C221.322 18.5333 221.562 19.3733 221.829 20.28C222.095 21.16 222.362 22.0267 222.629 22.88C222.895 23.7067 223.135 24.4267 223.349 25.04C223.562 25.6533 223.709 26.0533 223.789 26.24C224.082 26.9067 224.442 27.4667 224.869 27.92C225.295 28.3467 225.655 28.56 225.949 28.56C226.349 28.56 226.735 28.36 227.109 27.96C227.482 27.56 227.815 27.12 228.109 26.64C228.402 26.1333 228.602 25.7467 228.709 25.48C228.842 25.1867 229.042 24.7067 229.309 24.04C229.575 23.3733 229.882 22.6267 230.229 21.8C230.575 20.9467 230.922 20.0933 231.269 19.24C231.615 18.3867 231.922 17.6267 232.189 16.96C232.455 16.2667 232.655 15.7467 232.789 15.4C233.135 14.8667 233.442 14.4667 233.709 14.2C234.002 13.9067 234.389 13.76 234.869 13.76C235.215 13.76 235.509 13.84 235.749 14C235.989 14.1333 236.109 14.3867 236.109 14.76C236.109 14.84 236.095 14.92 236.069 15C236.069 15.08 236.055 15.16 236.029 15.24C235.869 15.88 235.642 16.72 235.349 17.76C235.055 18.7733 234.709 19.68 234.309 20.48L229.949 29.08C229.549 29.8533 229.029 30.5067 228.389 31.04C227.775 31.5467 227.109 31.8 226.389 31.8Z" fill="black"/>
</svg>
