<svg width="39" height="39" viewBox="0 0 39 39" fill="none" xmlns="http://www.w3.org/2000/svg">
<path d="M19.5 0C8.74069 0 0 8.74069 0 19.5C0 22.9584 0.948452 26.1859 2.53023 29.0033L0.0314623 37.9237C-0.00845786 38.0664 -0.0102616 38.2171 0.026231 38.3608C0.0627235 38.5044 0.136237 38.636 0.239443 38.7424C0.342648 38.8488 0.471939 38.9263 0.614424 38.9671C0.75691 39.008 0.907611 39.0107 1.0515 38.9752L10.3528 36.6701C13.0859 38.1292 16.1872 39 19.5 39C30.2593 39 39 30.2593 39 19.5C39 8.74069 30.2593 0 19.5 0ZM19.5 1.69565C29.3429 1.69565 37.3043 9.65713 37.3043 19.5C37.3043 29.3429 29.3429 37.3043 19.5 37.3043C16.3444 37.3043 13.389 36.4816 10.8197 35.044C10.6318 34.939 10.411 34.9094 10.2021 34.9612L2.05664 36.9798L4.24079 29.1871C4.27204 29.0769 4.28067 28.9616 4.26615 28.8481C4.25164 28.7345 4.21428 28.6251 4.15633 28.5264C2.59493 25.8787 1.69565 22.7981 1.69565 19.5C1.69565 9.65713 9.65713 1.69565 19.5 1.69565ZM12.4144 9.32609C11.8709 9.32609 11.0947 9.52828 10.4571 10.2153C10.0741 10.628 8.47826 12.1828 8.47826 14.9164C8.47826 17.7664 10.4549 20.2256 10.6939 20.5416H10.6955V20.5432C10.6729 20.5134 10.9989 20.9856 11.4341 21.5517C11.8692 22.1178 12.4778 22.8613 13.2423 23.6663C14.7713 25.2762 16.9212 27.1367 19.5894 28.2747C20.8182 28.7979 21.7876 29.1139 22.522 29.3444C23.8831 29.7718 25.1228 29.7068 26.0541 29.5696C26.7511 29.4669 27.5178 29.1322 28.2763 28.6522C29.0349 28.1722 29.7783 27.5753 30.1061 26.6684C30.341 26.0183 30.4603 25.4175 30.5035 24.9231C30.5251 24.6759 30.5279 24.4577 30.5118 24.2558C30.4957 24.0538 30.5129 23.8991 30.3247 23.5901C29.93 22.942 29.4829 22.9251 29.0165 22.6943C28.7574 22.566 28.0195 22.2057 27.2795 21.853C26.5402 21.5008 25.9002 21.1888 25.506 21.0483C25.2569 20.9587 24.9528 20.8297 24.5141 20.8794C24.0754 20.9291 23.642 21.2456 23.3897 21.6196C23.1506 21.974 22.1879 23.1103 21.8944 23.4444C21.8905 23.442 21.916 23.4537 21.8001 23.3964C21.4371 23.2167 20.9932 23.064 20.3362 22.7174C19.6793 22.3709 18.8576 21.8592 17.9583 21.0665V21.0648C16.62 19.8866 15.6825 18.4072 15.3867 17.9103C15.4066 17.8866 15.3843 17.9153 15.4265 17.8739L15.4281 17.8722C15.7304 17.5745 15.9983 17.2189 16.2246 16.9582C16.5455 16.5885 16.6872 16.2625 16.8406 15.958C17.1464 15.3511 16.9761 14.6833 16.7992 14.3319V14.3302C16.8114 14.3546 16.7035 14.1164 16.5873 13.8418C16.4707 13.5663 16.3221 13.2092 16.1633 12.8283C15.8459 12.0667 15.4915 11.2124 15.2807 10.7121V10.7104C15.0325 10.1211 14.6966 9.69651 14.2574 9.49168C13.8182 9.28685 13.4302 9.34508 13.4145 9.3443H13.4129C13.0995 9.32984 12.7556 9.32609 12.4144 9.32609ZM12.4144 11.0217C12.7412 11.0217 13.0635 11.0257 13.3334 11.0383C13.611 11.0521 13.5938 11.0533 13.5404 11.0284C13.4861 11.0031 13.5597 10.9948 13.7176 11.3695C13.9239 11.8594 14.2801 12.7168 14.5985 13.4808C14.7577 13.8628 14.9067 14.2213 15.0257 14.5025C15.1447 14.7836 15.2092 14.9406 15.2841 15.0903V15.092L15.2857 15.0936C15.3591 15.2384 15.3526 15.1457 15.3271 15.1963C15.1482 15.5514 15.1239 15.6386 14.9429 15.8471C14.6674 16.1645 14.3863 16.5185 14.2375 16.6651C14.1073 16.793 13.8725 16.9922 13.7258 17.3821C13.579 17.7726 13.6475 18.3084 13.8832 18.7085C14.1969 19.2411 15.2307 20.9238 16.8373 22.3382C17.8491 23.2302 18.7917 23.8205 19.5447 24.2177C20.2977 24.6149 20.911 24.8469 21.0483 24.9148C21.3742 25.0761 21.7303 25.2013 22.1445 25.1516C22.5586 25.1019 22.9157 24.8506 23.143 24.5936L23.1447 24.5919C23.4472 24.249 24.346 23.2226 24.7774 22.5899C24.7957 22.5964 24.7897 22.5914 24.933 22.6429V22.6446H24.9347C25.0001 22.6679 25.8199 23.0348 26.5509 23.3831C27.2818 23.7314 28.0237 24.0934 28.2647 24.2127C28.6126 24.3849 28.777 24.497 28.8195 24.4975C28.8223 24.5721 28.8252 24.653 28.8145 24.7757C28.7848 25.1162 28.6937 25.5876 28.5115 26.0922C28.4222 26.3392 27.9571 26.8487 27.3705 27.2199C26.784 27.591 26.0701 27.8532 25.8057 27.8922C25.0108 28.0093 24.067 28.052 23.0304 27.7266C22.3117 27.501 21.4155 27.2089 20.2551 26.7148C17.9017 25.7111 15.9015 24.0032 14.4727 22.4989C13.7582 21.7467 13.1859 21.0465 12.7787 20.5167C12.3722 19.988 12.1947 19.7128 12.0467 19.5182L12.0451 19.5166C11.7824 19.1692 10.1739 16.9318 10.1739 14.9164C10.1739 12.7835 11.1646 11.9471 11.7007 11.3695C11.9821 11.0662 12.2898 11.0217 12.4144 11.0217Z" fill="#182176"/>
</svg>
